Coordinates
version=1
nRows=54
nColumns=12
inDegrees=yes

Units are S.I. units (second, meters, Newtons, ...)
Angles are in degrees

endheader
time	SC_y	SC_z	SC_x	AC_y	AC_z	AC_x	GH_y	GH_z	GH_yy	EL_x	PS_y
       0.0              -21.22          7.386          62.47           53.9         -19.98         -14.38          172.5          22.21          118.8          17.04           69.5
   0.02848              -21.23          7.387          62.47           53.9         -19.98         -14.38          172.5          22.21          118.7          17.05           69.5
   0.05696              -21.23          7.389          62.47           53.9         -19.98         -14.37          172.4           22.2          118.7          17.05           69.5
   0.08544              -21.24           7.39          62.47           53.9         -19.98         -14.37          172.4           22.2          118.7          17.06          69.51
    0.1139              -21.25          7.392          62.47           53.9         -19.98         -14.37          172.3          22.19          118.7          17.07          69.52
    0.1424              -21.25          7.393          62.47          53.91         -19.98         -14.36          172.3          22.19          118.6          17.07          69.52
    0.1709              -21.26          7.395          62.46          53.91         -19.98         -14.36          172.2          22.18          118.6          17.08          69.53
    0.1994              -21.27          7.397          62.46          53.91         -19.98         -14.35          172.1          22.17          118.6          17.09          69.53
    0.2278              -21.28          7.399          62.46          53.92         -19.98         -14.35          172.0          22.17          118.5           17.1          69.54
    0.2563              -21.29          7.401          62.46          53.92         -19.98         -14.34          171.9          22.16          118.5          17.11          69.55
    0.2848               -21.3          7.404          62.46          53.92         -19.97         -14.33          171.8          22.15          118.4          17.12          69.56
    0.3133              -21.31          7.406          62.45          53.93         -19.97         -14.33          171.7          22.14          118.4          17.14          69.56
    0.3418              -21.32          7.409          62.45          53.93         -19.97         -14.32          171.6          22.13          118.3          17.15          69.57
    0.3702              -21.33          7.412          62.45          53.93         -19.97         -14.31          171.5          22.12          118.3          17.16          69.58
    0.3987              -21.34          7.415          62.44          53.94         -19.97          -14.3          171.4          22.11          118.2          17.18           69.6
    0.4272              -21.36          7.418          62.44          53.94         -19.97          -14.3          171.3           22.1          118.2          17.19          69.61
    0.4557              -21.37          7.422          62.44          53.95         -19.97         -14.29          171.1          22.08          118.1          17.21          69.62
    0.4842              -21.39          7.426          62.43          53.96         -19.97         -14.28          171.0          22.07          118.0          17.23          69.63
    0.5126              -21.41           7.43          62.43          53.96         -19.97         -14.26          170.8          22.05          118.0          17.25          69.65
    0.5411              -21.43          7.435          62.42          53.97         -19.96         -14.25          170.6          22.04          117.9          17.28          69.67
    0.5696              -21.45           7.44          62.42          53.98         -19.96         -14.24          170.4          22.02          117.8           17.3          69.68
    0.5981              -21.47          7.446          62.41          53.99         -19.96         -14.22          170.1           22.0          117.7          17.33           69.7
    0.6265               -21.5          7.453          62.41           54.0         -19.96          -14.2          169.9          21.97          117.5          17.36          69.73
     0.655              -21.53           7.46           62.4          54.01         -19.95         -14.18          169.6          21.95          117.4           17.4          69.75
    0.6835              -21.56          7.468          62.39          54.02         -19.95         -14.16          169.3          21.92          117.3          17.43          69.78
     0.712               -21.6          7.477          62.38          54.03         -19.95         -14.14          168.9          21.89          117.1          17.48          69.81
    0.7405              -21.64          7.487          62.37          54.05         -19.94         -14.11          168.5          21.85          116.9          17.53          69.84
    0.7689              -21.69          7.498          62.36          54.06         -19.94         -14.08          168.1          21.81          116.7          17.58          69.88
    0.7974              -21.74           7.51          62.35          54.08         -19.94         -14.05          167.6          21.77          116.5          17.64          69.93
    0.8259               -21.8          7.525          62.33           54.1         -19.93         -14.01          167.0          21.71          116.2          17.71          69.98
    0.8544              -21.87          7.541          62.31          54.13         -19.93         -13.97          166.4          21.65          115.9          17.79          70.03
    0.8829              -21.95           7.56          62.29          54.16         -19.92         -13.92          165.6          21.59          115.6          17.88           70.1
    0.9113              -22.04          7.582          62.27          54.19         -19.91         -13.86          164.8          21.51          115.2          17.99          70.17
    0.9398              -22.14          7.607          62.25          54.23          -19.9         -13.79          163.8          21.42          114.8          18.11          70.26
    0.9683              -22.27          7.636          62.22          54.27         -19.89         -13.72          162.6          21.31          114.2          18.25          70.36
    0.9968              -22.41          7.671          62.18          54.32         -19.88         -13.62          161.2          21.19          113.6          18.42          70.48
     1.025              -22.58          7.712          62.14          54.39         -19.86         -13.51          159.6          21.04          112.8          18.62          70.63
     1.054              -22.79          7.762          62.09          54.46         -19.85         -13.38          157.6          20.86          111.9          18.86           70.8
     1.082              -23.04          7.822          62.02          54.55         -19.82         -13.22          155.2          20.64          110.9          19.15          71.01
     1.111              -23.34          7.895          61.95          54.66          -19.8         -13.03          152.3          20.38          109.5           19.5          71.26
     1.139              -23.72          7.985          61.86           54.8         -19.76         -12.79          148.7          20.05          107.9          19.94          71.58
     1.168              -24.19          8.098          61.74          54.97         -19.72         -12.49          144.2          19.65          105.8          20.48          71.97
     1.196              -24.78          8.239          61.59          55.18         -19.67         -12.11          138.6          19.13          103.3          21.17          72.46
     1.225              -25.53           8.42          61.41          55.45         -19.61         -11.63          131.4          18.48          100.0          22.04          73.08
     1.253               -26.5          8.651          61.17           55.8         -19.52         -11.02          122.2          17.65          95.82          23.16          73.89
     1.282              -27.73          8.947          60.86          56.25         -19.42         -10.23          110.5          16.58          90.45          24.59          74.91
      1.31              -29.31          9.325          60.47          56.82         -19.28          -9.23          95.42          15.22          83.59          26.43          76.23
     1.339              -31.29            9.8          59.98          57.53         -19.11         -7.966           76.5           13.5          74.97          28.73          77.88
     1.367              -33.71          10.38          59.38          58.41          -18.9         -6.427          53.44          11.41          64.46          31.53          79.89
     1.395              -36.51          11.05          58.69          59.42         -18.65         -4.642          26.72          8.988          52.27          34.79          82.22
     1.424              -39.54          11.78          57.94          60.51         -18.39         -2.709         -2.219          6.364          39.08          38.31          84.75
     1.452              -42.57          12.51          57.19          61.61         -18.13        -0.7768         -31.16          3.739          25.89          41.83          87.27
     1.481              -45.37          13.18           56.5          62.62         -17.88          1.008         -57.88          1.316          13.71          45.08           89.6
     1.509              -47.79          13.76           55.9          63.49         -17.67          2.548         -80.94        -0.7754          3.196          47.89          91.62
